<mxfile host="Electron" agent="Mozilla/5.0 (Windows NT 10.0; Win64; x64) AppleWebKit/537.36 (KHTML, like Gecko) draw.io/26.0.9 Chrome/128.0.6613.186 Electron/32.2.5 Safari/537.36" version="26.0.9">
  <diagram name="Page-1" id="ERiFOCeBJDWLNFoQnIFF">
    <mxGraphModel dx="1430" dy="825" grid="1" gridSize="10" guides="1" tooltips="1" connect="1" arrows="1" fold="1" page="1" pageScale="1" pageWidth="850" pageHeight="1100" math="0" shadow="0">
      <root>
        <mxCell id="0" />
        <mxCell id="1" parent="0" />
        <mxCell id="tkwPk5Ab2tqxROHxDDEV-1" value="n + 1" style="rounded=0;whiteSpace=wrap;html=1;" vertex="1" parent="1">
          <mxGeometry y="220" width="50" height="60" as="geometry" />
        </mxCell>
        <mxCell id="tkwPk5Ab2tqxROHxDDEV-2" value="n" style="rounded=0;whiteSpace=wrap;html=1;" vertex="1" parent="1">
          <mxGeometry y="320" width="50" height="60" as="geometry" />
        </mxCell>
        <mxCell id="tkwPk5Ab2tqxROHxDDEV-3" value="n + 2" style="rounded=0;whiteSpace=wrap;html=1;" vertex="1" parent="1">
          <mxGeometry y="120" width="50" height="60" as="geometry" />
        </mxCell>
        <mxCell id="tkwPk5Ab2tqxROHxDDEV-4" value="n -1" style="rounded=0;whiteSpace=wrap;html=1;" vertex="1" parent="1">
          <mxGeometry y="420" width="50" height="60" as="geometry" />
        </mxCell>
        <mxCell id="tkwPk5Ab2tqxROHxDDEV-6" value="Indoor Mobility System (SOI)" style="rounded=1;whiteSpace=wrap;html=1;fillColor=#1ba1e2;fontColor=#ffffff;strokeColor=#006EAF;strokeWidth=2;shadow=0;sketch=1;curveFitting=1;jiggle=2;glass=0;arcSize=10;" vertex="1" parent="1">
          <mxGeometry x="382" y="320" width="87" height="60" as="geometry" />
        </mxCell>
        <mxCell id="tkwPk5Ab2tqxROHxDDEV-8" value="Solution System" style="rounded=1;whiteSpace=wrap;html=1;fillColor=#60a917;fontColor=#ffffff;strokeColor=#2D7600;strokeWidth=2;shadow=0;sketch=1;curveFitting=1;jiggle=2;glass=0;arcSize=10;" vertex="1" parent="1">
          <mxGeometry x="382" y="120" width="87" height="60" as="geometry" />
        </mxCell>
      </root>
    </mxGraphModel>
  </diagram>
</mxfile>
